<svg xmlns="http://www.w3.org/2000/svg" >
    <symbol id="md-translate" viewBox="0 0 24 24">
        <path d="M20 5h-9.12L10 2H4c-1.1 0-2 .9-2 2v13c0 1.1.9 2 2 2h7l1 3h8c1.1 0 2-.9 2-2V7c0-1.1-.9-2-2-2zM7.17 14.59c-2.25 0-4.09-1.83-4.09-4.09s1.83-4.09 4.09-4.09c1.04 0 1.99.37 2.74 1.07l.07.06-1.23 1.18-.06-.05c-.29-.27-.78-.59-1.52-.59-1.31 0-2.38 1.09-2.38 2.42s1.07 2.42 2.38 2.42c1.37 0 1.96-.87 2.12-1.46H7.08V9.91h3.95l.01.07c.04.21.05.4.05.61 0 2.35-1.61 4-3.92 4zm6.03-1.71c.33.6.74 1.18 1.19 1.7l-.54.53-.65-2.23zm.77-.76h-.99l-.31-1.04h3.99s-.34 1.31-1.56 2.74c-.52-.62-.89-1.23-1.13-1.7zM21 20c0 .55-.45 1-1 1h-7l2-2-.81-2.77.92-.92L17.79 18l.73-.73-2.71-2.68c.9-1.03 1.6-2.25 1.92-3.51H19v-1.04h-3.64V9h-1.04v1.04h-1.96L11.18 6H20c.55 0 1 .45 1 1v13z"/>
    </symbol>
    <symbol id="md-copy" viewBox="0 0 24 24">
        <path d="M16 1H4c-1.1 0-2 .9-2 2v14h2V3h12V1zm3 4H8c-1.1 0-2 .9-2 2v14c0 1.1.9 2 2 2h11c1.1 0 2-.9 2-2V7c0-1.1-.9-2-2-2zm0 16H8V7h11v14z"/>
    </symbol>
    <symbol id="md-search" viewBox="0 0 24 24">
        <path d="M15.5 14h-.79l-.28-.27C15.41 12.59 16 11.11 16 9.5 16 5.91 13.09 3 9.5 3S3 5.91 3 9.5 5.91 16 9.5 16c1.61 0 3.09-.59 4.23-1.57l.27.28v.79l5 4.99L20.49 19l-4.99-5zm-6 0C7.01 14 5 11.99 5 9.5S7.01 5 9.5 5 14 7.01 14 9.5 11.99 14 9.5 14z"/>
    </symbol>
    <symbol id="md-book" viewBox="0 0 24 24">
        <path d="M18 2H6c-1.1 0-2 .9-2 2v16c0 1.1.9 2 2 2h12c1.1 0 2-.9 2-2V4c0-1.1-.9-2-2-2zM6 4h5v8l-2.5-1.5L6 12V4z"/>
</symbol>
</svg>